<svg width="25" height="25" viewBox="0 0 25 25" fill="none" xmlns="http://www.w3.org/2000/svg">
  <path d="M12.5 0.214844C10.0702 0.214844 7.69502 0.935356 5.67474 2.28527C3.65445 3.63518 2.07984 5.55386 1.15 7.79867C0.220167 10.0435 -0.0231204 12.5136 0.450905 14.8967C0.92493 17.2798 2.09498 19.4688 3.81309 21.1869C5.5312 22.905 7.7202 24.0751 10.1033 24.5491C12.4864 25.0231 14.9565 24.7798 17.2013 23.85C19.4461 22.9202 21.3648 21.3456 22.7147 19.3253C24.0646 17.305 24.7852 14.9298 24.7852 12.5C24.7852 9.24177 23.4908 6.117 21.1869 3.81308C18.883 1.50917 15.7582 0.214844 12.5 0.214844Z" fill="url(#paint0_linear_605_62)"/>
  <path d="M19.5098 10.4656L12.1221 18.2212C11.9209 18.4324 11.6791 18.6009 11.4113 18.7165C11.1434 18.8321 10.855 18.8925 10.5633 18.894H10.5539C10.2639 18.894 9.9768 18.8358 9.70967 18.7228C9.44255 18.6098 9.2008 18.4444 8.99875 18.2364L5.07978 14.1989C4.86666 13.9981 4.69641 13.7562 4.57932 13.4878C4.46223 13.2195 4.40072 12.9302 4.3985 12.6374C4.39628 12.3445 4.45339 12.0543 4.5664 11.7842C4.6794 11.5141 4.84596 11.2697 5.05601 11.0657C5.26606 10.8617 5.51526 10.7023 5.78858 10.5973C6.06189 10.4922 6.35366 10.4436 6.64627 10.4544C6.93888 10.4652 7.22627 10.5351 7.49111 10.66C7.75595 10.7849 7.99274 10.9622 8.18721 11.1811L10.5358 13.6013L16.367 7.47746C16.5632 7.2711 16.7981 7.1054 17.0583 6.98984C17.3186 6.87427 17.599 6.81109 17.8837 6.80391C18.1684 6.79673 18.4516 6.84569 18.7174 6.94799C18.9831 7.05029 19.2261 7.20393 19.4325 7.40014C19.6388 7.59634 19.8045 7.83128 19.9201 8.09152C20.0357 8.35176 20.0988 8.63222 20.106 8.91688C20.1132 9.20154 20.0642 9.48482 19.9619 9.75056C19.8596 10.0163 19.706 10.2593 19.5098 10.4656Z" fill="url(#paint1_linear_605_62)"/>
  <defs>
    <linearGradient id="paint0_linear_605_62" x1="21.1885" y1="21.1885" x2="3.81151" y2="3.8115" gradientUnits="userSpaceOnUse">
      <stop stop-color="#045CE2"/>
      <stop offset="0.52" stop-color="#045CE2"/>
      <stop offset="1" stop-color="#B0D1F2"/>
    </linearGradient>
    <linearGradient id="paint1_linear_605_62" x1="15.8705" y1="14.4742" x2="8.82892" y2="7.43193" gradientUnits="userSpaceOnUse">
      <stop stop-color="#B0D1F2"/>
      <stop offset="0.57" stop-color="white"/>
      <stop offset="1" stop-color="white"/>
    </linearGradient>
  </defs>
</svg>
