<svg width="100" height="61" viewBox="0 0 100 61" fill="none" xmlns="http://www.w3.org/2000/svg">
<path d="M54.6507 37.5009C54.6507 37.7494 54.6015 37.9815 54.5032 38.1973C54.4113 38.4131 54.2835 38.6027 54.1195 38.7662C53.9555 38.9231 53.762 39.0506 53.539 39.1487C53.3226 39.2403 53.0898 39.286 52.8405 39.286C52.5913 39.286 52.3552 39.2403 52.1322 39.1487C51.9158 39.0506 51.7255 38.9231 51.5616 38.7662C51.4042 38.6027 51.2763 38.4131 51.1779 38.1973C51.0861 37.9815 51.0402 37.7494 51.0402 37.5009C51.0402 37.259 51.0861 37.0301 51.1779 36.8143C51.2763 36.592 51.4042 36.4024 51.5616 36.2455C51.7255 36.082 51.9158 35.9545 52.1322 35.8629C52.3552 35.7649 52.5913 35.7158 52.8405 35.7158C53.0898 35.7158 53.3226 35.7649 53.539 35.8629C53.762 35.9545 53.9555 36.082 54.1195 36.2455C54.2835 36.4024 54.4113 36.592 54.5032 36.8143C54.6015 37.0301 54.6507 37.259 54.6507 37.5009ZM54.1884 50.8598H51.4829V40.3551H54.1884V50.8598Z" fill="#045CE2"/>
<path d="M49.4267 50.8597H48.7774L47.7345 49.4179C47.4788 49.6467 47.2066 49.8625 46.918 50.0652C46.636 50.2614 46.3375 50.4347 46.0227 50.5851C45.7079 50.7289 45.3832 50.8434 45.0487 50.9284C44.7208 51.0134 44.3863 51.0559 44.0453 51.0559C43.3041 51.0559 42.6056 50.9316 41.9497 50.6832C41.3004 50.4347 40.7298 50.075 40.2379 49.6042C39.7526 49.1269 39.3689 48.5449 39.0869 47.8584C38.8048 47.1718 38.6638 46.3904 38.6638 45.5142C38.6638 44.6968 38.8048 43.9481 39.0869 43.2681C39.3689 42.5815 39.7526 41.993 40.2379 41.5026C40.7298 41.0122 41.3004 40.6329 41.9497 40.3648C42.6056 40.0902 43.3041 39.9529 44.0453 39.9529C44.3863 39.9529 44.7241 39.9954 45.0586 40.0804C45.3931 40.1654 45.7177 40.2831 46.0326 40.4335C46.3474 40.5839 46.6458 40.7604 46.9278 40.9631C47.2164 41.1658 47.4853 41.3849 47.7345 41.6203L48.7774 40.3746H49.4267V50.8597ZM46.7212 45.5142C46.7212 45.148 46.6491 44.7949 46.5048 44.4549C46.3671 44.1083 46.1768 43.8043 45.9342 43.5427C45.6915 43.2746 45.4062 43.0621 45.0783 42.9052C44.7569 42.7417 44.4125 42.66 44.0453 42.66C43.678 42.66 43.3304 42.7221 43.0024 42.8463C42.681 42.9706 42.399 43.1537 42.1563 43.3956C41.9202 43.6375 41.7333 43.9383 41.5956 44.298C41.4578 44.6511 41.389 45.0565 41.389 45.5142C41.389 45.9719 41.4578 46.3806 41.5956 46.7402C41.7333 47.0933 41.9202 47.3908 42.1563 47.6328C42.399 47.8747 42.681 48.0578 43.0024 48.182C43.3304 48.3063 43.678 48.3684 44.0453 48.3684C44.4125 48.3684 44.7569 48.2899 45.0783 48.133C45.4062 47.9695 45.6915 47.757 45.9342 47.4955C46.1768 47.2274 46.3671 46.9233 46.5048 46.5833C46.6491 46.2367 46.7212 45.8804 46.7212 45.5142Z" fill="#045CE2"/>
<path d="M37.1683 50.8597H36.519L35.4761 49.4179C35.2203 49.6467 34.9481 49.8625 34.6596 50.0652C34.3775 50.2614 34.0791 50.4347 33.7643 50.5851C33.4495 50.7289 33.1248 50.8434 32.7903 50.9284C32.4624 51.0134 32.1279 51.0559 31.7868 51.0559C31.0457 51.0559 30.3472 50.9316 29.6913 50.6832C29.042 50.4347 28.4714 50.075 27.9795 49.6042C27.4941 49.1269 27.1105 48.5449 26.8284 47.8584C26.5464 47.1718 26.4054 46.3904 26.4054 45.5142C26.4054 44.6968 26.5464 43.9481 26.8284 43.2681C27.1105 42.5815 27.4941 41.993 27.9795 41.5026C28.4714 41.0122 29.042 40.6329 29.6913 40.3648C30.3472 40.0902 31.0457 39.9529 31.7868 39.9529C32.1279 39.9529 32.4657 39.9954 32.8002 40.0804C33.1347 40.1654 33.4593 40.2831 33.7741 40.4335C34.089 40.5839 34.3874 40.7604 34.6694 40.9631C34.958 41.1658 35.2269 41.3849 35.4761 41.6203L36.519 40.3746H37.1683V50.8597ZM34.4628 45.5142C34.4628 45.148 34.3907 44.7949 34.2464 44.4549C34.1086 44.1083 33.9184 43.8043 33.6757 43.5427C33.4331 43.2746 33.1478 43.0621 32.8198 42.9052C32.4985 42.7417 32.1541 42.66 31.7868 42.66C31.4195 42.66 31.0719 42.7221 30.744 42.8463C30.4226 42.9706 30.1406 43.1537 29.8979 43.3956C29.6618 43.6375 29.4749 43.9383 29.3371 44.298C29.1994 44.6511 29.1305 45.0565 29.1305 45.5142C29.1305 45.9719 29.1994 46.3806 29.3371 46.7402C29.4749 47.0933 29.6618 47.3908 29.8979 47.6328C30.1406 47.8747 30.4226 48.0578 30.744 48.182C31.0719 48.3063 31.4195 48.3684 31.7868 48.3684C32.1541 48.3684 32.4985 48.2899 32.8198 48.133C33.1478 47.9695 33.4331 47.757 33.6757 47.4955C33.9184 47.2274 34.1086 46.9233 34.2464 46.5833C34.3907 46.2367 34.4628 45.8804 34.4628 45.5142Z" fill="black"/>
<path d="M25.0183 47.064C25.0183 47.6133 24.9133 48.1331 24.7034 48.6235C24.4936 49.1074 24.205 49.5292 23.8377 49.8888C23.477 50.2484 23.0506 50.5329 22.5587 50.7421C22.0734 50.9514 21.552 51.056 20.9945 51.056C20.496 51.056 20.0172 50.971 19.5581 50.801C19.099 50.6244 18.6825 50.3694 18.3087 50.0359C17.9414 50.3694 17.5282 50.6244 17.0691 50.801C16.6165 50.971 16.1377 51.056 15.6327 51.056C15.0752 51.056 14.5538 50.9514 14.0685 50.7421C13.5831 50.5329 13.1568 50.2484 12.7895 49.8888C12.4288 49.5292 12.1435 49.1074 11.9336 48.6235C11.7237 48.1331 11.6188 47.6133 11.6188 47.064V40.3748H14.3046V47.064C14.3046 47.2471 14.3374 47.4204 14.403 47.5839C14.4751 47.7408 14.5702 47.8814 14.6883 48.0056C14.8129 48.1233 14.9539 48.2181 15.1113 48.2901C15.2753 48.3554 15.4491 48.3881 15.6327 48.3881C15.8164 48.3881 15.9902 48.3554 16.1541 48.2901C16.3181 48.2181 16.4624 48.1233 16.587 48.0056C16.7116 47.8814 16.8067 47.7408 16.8723 47.5839C16.9445 47.4204 16.9805 47.2471 16.9805 47.064V40.3748H19.6565V47.064C19.6565 47.2471 19.6926 47.4204 19.7647 47.5839C19.8369 47.7408 19.932 47.8814 20.05 48.0056C20.1746 48.1233 20.3157 48.2181 20.4731 48.2901C20.637 48.3554 20.8108 48.3881 20.9945 48.3881C21.1781 48.3881 21.3519 48.3554 21.5159 48.2901C21.6799 48.2181 21.8209 48.1233 21.9389 48.0056C22.0636 47.8814 22.1619 47.7408 22.2341 47.5839C22.3062 47.4204 22.3423 47.2471 22.3423 47.064V40.3748H25.0183V47.064Z" fill="black"/>
<path d="M2.82353 50.8598H0V36.7947H2.82353V43.8272L8.07708 36.7947H11.2843L6.82764 42.7287L11.2843 50.8598H8.07708L4.97808 45.171L2.82353 48.0448V50.8598Z" fill="black"/>
<path d="M75.6215 56.2611C75.8782 56.2611 76.107 56.3223 76.3079 56.4447C76.5125 56.5634 76.6725 56.734 76.7878 56.9565C76.9069 57.1791 76.9664 57.4442 76.9664 57.7521C76.9664 58.034 76.9069 58.2825 76.7878 58.4976C76.6725 58.7127 76.5162 58.8815 76.3191 59.0038C76.1256 59.1225 75.908 59.1819 75.6662 59.1819C75.4541 59.1819 75.2644 59.1262 75.097 59.015C74.9333 58.9037 74.8031 58.7739 74.7064 58.6255V59.0984H74.2488V55.0928H74.7064V56.6895C74.8254 56.5559 74.9668 56.4521 75.1305 56.3779C75.2979 56.3 75.4616 56.2611 75.6215 56.2611ZM75.5378 56.7117C75.3667 56.7117 75.216 56.7525 75.0858 56.8341C74.9556 56.912 74.831 57.0233 74.7119 57.1679L74.7064 57.702C74.7064 57.8986 74.7436 58.0748 74.818 58.2305C74.8961 58.3863 75.0021 58.5087 75.136 58.5977C75.2737 58.6867 75.4262 58.7312 75.5936 58.7312C75.7759 58.7312 75.934 58.6867 76.068 58.5977C76.2019 58.5087 76.306 58.39 76.3805 58.2417C76.4549 58.0933 76.4921 57.9301 76.4921 57.7521C76.4921 57.5703 76.453 57.4016 76.3749 57.2458C76.3005 57.0863 76.1926 56.9584 76.0512 56.8619C75.9098 56.7618 75.7387 56.7117 75.5378 56.7117Z" fill="#545454"/>
<path d="M71.7816 56.261C71.9416 56.261 72.1034 56.2999 72.2671 56.3778C72.4345 56.452 72.5777 56.5558 72.6968 56.6894V56.3166H73.1544V59.0983H72.6968V58.6254C72.6001 58.7738 72.468 58.9036 72.3006 59.0149C72.1369 59.1261 71.949 59.1818 71.737 59.1818C71.4989 59.1818 71.2813 59.1224 71.0841 59.0037C70.8869 58.8814 70.7288 58.7126 70.6098 58.4975C70.4944 58.2824 70.4368 58.0339 70.4368 57.752C70.4368 57.4441 70.4944 57.1789 70.6098 56.9564C70.7288 56.7339 70.8906 56.5633 71.0952 56.4446C71.2999 56.3222 71.5286 56.261 71.7816 56.261ZM71.8653 56.7061C71.6644 56.7061 71.4933 56.7561 71.3519 56.8563C71.2106 56.9564 71.1008 57.0862 71.0227 57.2457C70.9483 57.4015 70.9111 57.5702 70.9111 57.752C70.9111 57.93 70.9483 58.0951 71.0227 58.2471C71.0971 58.3955 71.2013 58.5142 71.3352 58.6032C71.4728 58.6922 71.631 58.7367 71.8095 58.7367C71.9807 58.7367 72.1332 58.6922 72.2671 58.6032C72.401 58.5142 72.5071 58.3918 72.5852 58.236C72.6633 58.0765 72.7005 57.8985 72.6968 57.7019L72.6912 57.1678C72.5759 57.0232 72.4513 56.9101 72.3173 56.8285C72.1871 56.7469 72.0365 56.7061 71.8653 56.7061Z" fill="#545454"/>
<path d="M67.5789 55.3708V58.6254H69.638V59.0983H67.0767V55.3708H67.5789Z" fill="#545454"/>
<path d="M63.8832 58.6254V59.0983H62.1199V58.6254H62.7504V55.8437H62.1199V55.3708H63.8832V55.8437H63.2527V58.6254H63.8832Z" fill="#545454"/>
<path d="M59.5577 55.3708L61.3043 59.0983H60.7017L60.311 58.2082H58.5588L58.1626 59.0983H57.5599L59.3066 55.3708H59.5577ZM59.4405 56.2165L58.7653 57.7353H60.1046L59.4405 56.2165Z" fill="#545454"/>
<path d="M55.0643 55.0928V59.0984H54.6067V55.0928H55.0643Z" fill="#545454"/>
<path d="M52.1394 56.261C52.2994 56.261 52.4612 56.2999 52.6249 56.3778C52.7923 56.452 52.9355 56.5558 53.0546 56.6894V56.3166H53.5122V59.0983H53.0546V58.6254C52.9579 58.7738 52.8258 58.9036 52.6584 59.0149C52.4947 59.1261 52.3068 59.1818 52.0948 59.1818C51.8567 59.1818 51.639 59.1224 51.4419 59.0037C51.2447 58.8814 51.0866 58.7126 50.9675 58.4975C50.8522 58.2824 50.7946 58.0339 50.7946 57.752C50.7946 57.4441 50.8522 57.1789 50.9675 56.9564C51.0866 56.7339 51.2484 56.5633 51.453 56.4446C51.6576 56.3222 51.8864 56.261 52.1394 56.261ZM52.2231 56.7061C52.0222 56.7061 51.8511 56.7561 51.7097 56.8563C51.5684 56.9564 51.4586 57.0862 51.3805 57.2457C51.3061 57.4015 51.2689 57.5702 51.2689 57.752C51.2689 57.93 51.3061 58.0951 51.3805 58.2471C51.4549 58.3955 51.5591 58.5142 51.693 58.6032C51.8306 58.6922 51.9887 58.7367 52.1673 58.7367C52.3384 58.7367 52.491 58.6922 52.6249 58.6032C52.7588 58.5142 52.8649 58.3918 52.943 58.236C53.0211 58.0765 53.0583 57.8985 53.0546 57.7019L53.049 57.1678C52.9337 57.0232 52.809 56.9101 52.6751 56.8285C52.5449 56.7469 52.3942 56.7061 52.2231 56.7061Z" fill="#545454"/>
<path d="M48.0373 56.3166V56.7561C48.0968 56.682 48.1731 56.6078 48.2661 56.5336C48.3591 56.4557 48.4633 56.3908 48.5786 56.3389C48.6976 56.2869 48.8204 56.261 48.9469 56.261C49.1366 56.261 49.3096 56.3036 49.4659 56.3889C49.6221 56.4705 49.7467 56.5966 49.8397 56.7673C49.9327 56.9342 49.9792 57.1456 49.9792 57.4015V59.0983H49.5217L49.5161 57.446C49.5161 57.2049 49.4621 57.0213 49.3542 56.8952C49.2501 56.7691 49.0883 56.7061 48.8688 56.7061C48.72 56.7061 48.5711 56.7617 48.4223 56.873C48.2772 56.9805 48.1489 57.1066 48.0373 57.2513V59.0983H47.5797V56.3166H48.0373Z" fill="#545454"/>
<path d="M45.224 56.261C45.5068 56.261 45.7579 56.3277 45.9774 56.4613C46.1969 56.5948 46.368 56.7728 46.4908 56.9954C46.6173 57.2179 46.6805 57.4608 46.6805 57.7242C46.6805 57.9875 46.6173 58.2304 46.4908 58.453C46.368 58.6718 46.1969 58.848 45.9774 58.9815C45.7579 59.115 45.5068 59.1818 45.224 59.1818C44.9413 59.1818 44.6902 59.115 44.4707 58.9815C44.2512 58.848 44.0782 58.6718 43.9517 58.453C43.829 58.2304 43.7676 57.9875 43.7676 57.7242C43.7676 57.4608 43.829 57.2179 43.9517 56.9954C44.0782 56.7728 44.2512 56.5948 44.4707 56.4613C44.6902 56.3277 44.9413 56.261 45.224 56.261ZM45.224 56.7061C45.0269 56.7061 44.8539 56.7543 44.7051 56.8507C44.5563 56.9434 44.4409 57.0677 44.3591 57.2235C44.281 57.3755 44.2419 57.5424 44.2419 57.7242C44.2419 57.9022 44.281 58.0691 44.3591 58.2249C44.4409 58.3769 44.5563 58.5012 44.7051 58.5976C44.8539 58.6903 45.0269 58.7367 45.224 58.7367C45.4249 58.7367 45.5979 58.6903 45.743 58.5976C45.8918 58.5012 46.0053 58.3769 46.0834 58.2249C46.1653 58.0691 46.2062 57.9022 46.2062 57.7242C46.2062 57.5424 46.1653 57.3755 46.0834 57.2235C46.0053 57.0677 45.8918 56.9434 45.743 56.8507C45.5979 56.7543 45.4249 56.7061 45.224 56.7061Z" fill="#545454"/>
<path d="M42.2602 56.261C42.4239 56.261 42.5764 56.2851 42.7178 56.3333C42.8591 56.3778 42.9614 56.4242 43.0247 56.4724V56.962C42.9466 56.9026 42.8405 56.8451 42.7066 56.7895C42.5727 56.7339 42.435 56.7061 42.2937 56.7061C42.1188 56.7061 41.9867 56.7469 41.8975 56.8285C41.8119 56.9101 41.7691 56.9954 41.7691 57.0844C41.7691 57.1548 41.7933 57.2272 41.8417 57.3013C41.8937 57.3718 41.983 57.4293 42.1095 57.4738L42.5783 57.6407C42.7605 57.7038 42.8963 57.7946 42.9856 57.9133C43.0749 58.032 43.1195 58.1711 43.1195 58.3306C43.1195 58.4863 43.0749 58.6291 42.9856 58.759C42.9001 58.8888 42.7791 58.9926 42.6229 59.0705C42.4704 59.1447 42.2937 59.1818 42.0928 59.1818C41.9849 59.1818 41.8714 59.1669 41.7524 59.1373C41.637 59.1113 41.5329 59.0798 41.4399 59.0427C41.3469 59.0019 41.278 58.9667 41.2334 58.937V58.4474C41.2855 58.4845 41.358 58.5271 41.451 58.5754C41.5478 58.6199 41.6501 58.6588 41.7579 58.6922C41.8658 58.7219 41.9663 58.7367 42.0593 58.7367C42.2341 58.7367 42.3718 58.6978 42.4722 58.6199C42.5764 58.542 42.6285 58.4456 42.6285 58.3306C42.6285 58.2416 42.5931 58.1711 42.5224 58.1192C42.4555 58.0672 42.3569 58.0172 42.2267 57.969L41.8137 57.8187C41.598 57.7371 41.4547 57.6351 41.3841 57.5128C41.3134 57.3866 41.278 57.2439 41.278 57.0844C41.278 56.847 41.3673 56.6504 41.5459 56.4946C41.7245 56.3389 41.9626 56.261 42.2602 56.261Z" fill="#545454"/>
<path d="M39.5474 56.3166V56.873C39.6553 56.6875 39.7855 56.5392 39.9381 56.4279C40.0906 56.3166 40.2468 56.261 40.4068 56.261C40.5147 56.261 40.6114 56.2795 40.697 56.3166V56.8451C40.5779 56.7747 40.4589 56.7394 40.3398 56.7394C40.1501 56.7394 39.9957 56.8062 39.8767 56.9397C39.7613 57.0732 39.6516 57.2327 39.5474 57.4182V59.0983H39.0898V56.3166H39.5474Z" fill="#545454"/>
<path d="M36.9071 56.261C37.1936 56.261 37.4317 56.3203 37.6214 56.439C37.8111 56.5577 37.9525 56.719 38.0455 56.923C38.1422 57.127 38.1906 57.357 38.1906 57.6129V57.8855H36.0477C36.0701 58.0413 36.124 58.1841 36.2096 58.3139C36.2951 58.4437 36.4067 58.5475 36.5444 58.6254C36.682 58.6996 36.8401 58.7367 37.0187 58.7367C37.2196 58.7367 37.4075 58.6866 37.5823 58.5865C37.7572 58.4826 37.9041 58.3695 38.0232 58.2471L38.0176 58.7423C37.9655 58.8053 37.8874 58.8721 37.7832 58.9425C37.6828 59.0093 37.5656 59.0649 37.4317 59.1095C37.3015 59.1577 37.1638 59.1818 37.0187 59.1818C36.736 59.1818 36.4849 59.115 36.2654 58.9815C36.0459 58.848 35.8729 58.6718 35.7464 58.453C35.6236 58.2304 35.5623 57.9875 35.5623 57.7242C35.5623 57.4608 35.6199 57.2179 35.7352 56.9954C35.8506 56.7728 36.0087 56.5948 36.2096 56.4613C36.4142 56.3277 36.6467 56.261 36.9071 56.261ZM36.9071 56.7061C36.6765 56.7061 36.4867 56.7839 36.3379 56.9397C36.1891 57.0918 36.0961 57.2772 36.0589 57.4961H37.7386C37.72 57.3143 37.6679 57.166 37.5823 57.051C37.5005 56.936 37.4 56.8507 37.281 56.7951C37.1619 56.7357 37.0373 56.7061 36.9071 56.7061Z" fill="#545454"/>
<path d="M33.5583 55.3708C33.7741 55.3708 33.9805 55.4209 34.1777 55.5211C34.3749 55.6175 34.5367 55.7584 34.6632 55.9439C34.7934 56.1256 34.8585 56.3444 34.8585 56.6004C34.8585 56.8192 34.7971 57.0213 34.6744 57.2068C34.5516 57.3922 34.3842 57.5424 34.1721 57.6574C33.9638 57.7687 33.7313 57.8243 33.4746 57.8243C33.2849 57.8243 33.11 57.8058 32.95 57.7687C32.7938 57.7279 32.6673 57.6852 32.5706 57.6407V59.0983H32.0684V55.3708H33.5583ZM32.5706 55.8437V57.1845C32.671 57.2253 32.8012 57.2643 32.9612 57.3014C33.1249 57.3347 33.2904 57.3514 33.4579 57.3514C33.7406 57.3514 33.9582 57.2791 34.1108 57.1344C34.267 56.9861 34.3451 56.8081 34.3451 56.6004C34.3451 56.4409 34.3005 56.3055 34.2112 56.1942C34.1256 56.083 34.0122 55.9977 33.8708 55.9383C33.7294 55.8753 33.5788 55.8437 33.4188 55.8437H32.5706Z" fill="#545454"/>
<path d="M28.317 55.5154V56.3165H29.1317V56.7449H28.317V58.375C28.317 58.4899 28.3468 58.5808 28.4063 58.6476C28.4658 58.7143 28.557 58.7477 28.6797 58.7477C28.7914 58.7477 28.8844 58.7347 28.9588 58.7088C29.0332 58.6791 29.0983 58.6476 29.1541 58.6142V58.9869C29.0797 59.0463 28.9997 59.0926 28.9141 59.126C28.8323 59.1631 28.7207 59.1817 28.5793 59.1817C28.3412 59.1817 28.1608 59.1112 28.038 58.9703C27.919 58.8256 27.8594 58.6346 27.8594 58.3972V56.7449H27.3237V56.6114C27.506 56.5298 27.6585 56.3963 27.7813 56.2108C27.9041 56.0217 28.012 55.7898 28.105 55.5154H28.317Z" fill="#545454"/>
<path d="M26.1288 54.9814C26.2367 54.9814 26.326 55.0204 26.3967 55.0983C26.4711 55.1725 26.5083 55.2596 26.5083 55.3598C26.5083 55.4562 26.4711 55.5433 26.3967 55.6212C26.326 55.6991 26.2367 55.7381 26.1288 55.7381C26.021 55.7381 25.9298 55.6991 25.8554 55.6212C25.7847 55.5433 25.7494 55.4562 25.7494 55.3598C25.7494 55.2596 25.7847 55.1725 25.8554 55.0983C25.9298 55.0204 26.021 54.9814 26.1288 54.9814ZM26.4134 56.3167V59.0984H25.9559V56.745H25.515V56.3167H26.4134Z" fill="#545454"/>
<path d="M24.9284 56.3167V56.7451H24.1136V59.0984H23.6561V56.7451H23.2152V56.3167H23.6561V55.9606C23.6561 55.7418 23.6988 55.5638 23.7844 55.4265C23.87 55.2856 23.9797 55.1817 24.1136 55.115C24.2476 55.0445 24.3834 55.0093 24.521 55.0093C24.7107 55.0093 24.8651 55.0593 24.9842 55.1595V55.5601C24.9284 55.523 24.8614 55.4933 24.7833 55.471C24.7052 55.4488 24.627 55.4395 24.5489 55.4432C24.4113 55.4469 24.3034 55.4914 24.2252 55.5767C24.1508 55.6583 24.1136 55.803 24.1136 56.0107V56.3167H24.9284Z" fill="#545454"/>
<path d="M21.1274 56.261C21.4101 56.261 21.6612 56.3277 21.8807 56.4613C22.1002 56.5948 22.2713 56.7728 22.3941 56.9954C22.5206 57.2179 22.5838 57.4608 22.5838 57.7242C22.5838 57.9875 22.5206 58.2304 22.3941 58.453C22.2713 58.6718 22.1002 58.848 21.8807 58.9815C21.6612 59.115 21.4101 59.1818 21.1274 59.1818C20.8446 59.1818 20.5935 59.115 20.374 58.9815C20.1545 58.848 19.9815 58.6718 19.855 58.453C19.7323 58.2304 19.6709 57.9875 19.6709 57.7242C19.6709 57.4608 19.7323 57.2179 19.855 56.9954C19.9815 56.7728 20.1545 56.5948 20.374 56.4613C20.5935 56.3277 20.8446 56.261 21.1274 56.261ZM21.1274 56.7061C20.9302 56.7061 20.7572 56.7543 20.6084 56.8507C20.4596 56.9434 20.3443 57.0677 20.2624 57.2235C20.1843 57.3755 20.1452 57.5424 20.1452 57.7242C20.1452 57.9022 20.1843 58.0691 20.2624 58.2249C20.3443 58.3769 20.4596 58.5012 20.6084 58.5976C20.7572 58.6903 20.9302 58.7367 21.1274 58.7367C21.3282 58.7367 21.5012 58.6903 21.6463 58.5976C21.7951 58.5012 21.9086 58.3769 21.9867 58.2249C22.0686 58.0691 22.1095 57.9022 22.1095 57.7242C22.1095 57.5424 22.0686 57.3755 21.9867 57.2235C21.9086 57.0677 21.7951 56.9434 21.6463 56.8507C21.5012 56.7543 21.3282 56.7061 21.1274 56.7061Z" fill="#545454"/>
<path d="M17.9849 56.3166V56.873C18.0928 56.6875 18.223 56.5392 18.3756 56.4279C18.5281 56.3166 18.6843 56.261 18.8443 56.261C18.9522 56.261 19.0489 56.2795 19.1345 56.3166V56.8451C19.0154 56.7747 18.8964 56.7394 18.7773 56.7394C18.5876 56.7394 18.4332 56.8062 18.3142 56.9397C18.1988 57.0732 18.0891 57.2327 17.9849 57.4182V59.0983H17.5273V56.3166H17.9849Z" fill="#545454"/>
<path d="M15.328 56.261C15.5699 56.261 15.7875 56.3203 15.9809 56.439C16.1781 56.554 16.3344 56.7172 16.4497 56.9286C16.5687 57.1363 16.6283 57.3811 16.6283 57.663C16.6283 57.9671 16.5687 58.2341 16.4497 58.4641C16.3344 58.6903 16.1744 58.8665 15.9698 58.9926C15.7689 59.1187 15.5401 59.1818 15.2834 59.1818C15.1234 59.1818 14.9597 59.1391 14.7923 59.0538C14.6286 58.9685 14.4873 58.8591 14.3682 58.7256V60.4335H13.9106V56.3166H14.3682V56.7895C14.465 56.6412 14.5952 56.5169 14.7589 56.4168C14.9263 56.3129 15.116 56.261 15.328 56.261ZM15.2555 56.7061C15.0881 56.7061 14.9356 56.7487 14.7979 56.834C14.664 56.9193 14.558 57.038 14.4798 57.1901C14.4054 57.3384 14.3682 57.5128 14.3682 57.713L14.3738 58.2471C14.4929 58.3918 14.6175 58.5105 14.7477 58.6032C14.8779 58.6922 15.0286 58.7367 15.1997 58.7367C15.4006 58.7367 15.5717 58.6848 15.7131 58.5809C15.8545 58.4771 15.9623 58.3436 16.0367 58.1804C16.1149 58.0135 16.1539 57.841 16.1539 57.663C16.1539 57.4812 16.1167 57.3199 16.0423 57.1789C15.9679 57.0343 15.8638 56.9193 15.7298 56.834C15.5959 56.7487 15.4378 56.7061 15.2555 56.7061Z" fill="#545454"/>
<path d="M12.9557 57.4404V57.9411H11.276V57.4404H12.9557Z" fill="#545454"/>
<path d="M8.46283 56.3166V56.7561C8.52236 56.682 8.59862 56.6078 8.69163 56.5336C8.78463 56.4557 8.8888 56.3908 9.00412 56.3389C9.12317 56.2869 9.24594 56.261 9.37242 56.261C9.56215 56.261 9.73514 56.3036 9.89139 56.3889C10.0476 56.4705 10.1723 56.5966 10.2653 56.7673C10.3583 56.9342 10.4048 57.1456 10.4048 57.4015V59.0983H9.9472L9.94162 57.446C9.94162 57.2049 9.88767 57.0213 9.77979 56.8952C9.67562 56.7691 9.51379 56.7061 9.2943 56.7061C9.14549 56.7061 8.99668 56.7617 8.84788 56.873C8.70279 56.9805 8.57444 57.1066 8.46283 57.2513V59.0983H8.00525V56.3166H8.46283Z" fill="#545454"/>
<path d="M5.6497 56.261C5.93243 56.261 6.18355 56.3277 6.40304 56.4613C6.62253 56.5948 6.79366 56.7728 6.91643 56.9954C7.04291 57.2179 7.10616 57.4608 7.10616 57.7242C7.10616 57.9875 7.04291 58.2304 6.91643 58.453C6.79366 58.6718 6.62253 58.848 6.40304 58.9815C6.18355 59.115 5.93243 59.1818 5.6497 59.1818C5.36696 59.1818 5.11585 59.115 4.89636 58.9815C4.67686 58.848 4.50387 58.6718 4.37739 58.453C4.25462 58.2304 4.19324 57.9875 4.19324 57.7242C4.19324 57.4608 4.25462 57.2179 4.37739 56.9954C4.50387 56.7728 4.67686 56.5948 4.89636 56.4613C5.11585 56.3277 5.36696 56.261 5.6497 56.261ZM5.6497 56.7061C5.45253 56.7061 5.27954 56.7543 5.13073 56.8507C4.98192 56.9434 4.86659 57.0677 4.78475 57.2235C4.70663 57.3755 4.66756 57.5424 4.66756 57.7242C4.66756 57.9022 4.70663 58.0691 4.78475 58.2249C4.86659 58.3769 4.98192 58.5012 5.13073 58.5976C5.27954 58.6903 5.45253 58.7367 5.6497 58.7367C5.85059 58.7367 6.02358 58.6903 6.16867 58.5976C6.31747 58.5012 6.43094 58.3769 6.50906 58.2249C6.59091 58.0691 6.63183 57.9022 6.63183 57.7242C6.63183 57.5424 6.59091 57.3755 6.50906 57.2235C6.43094 57.0677 6.31747 56.9434 6.16867 56.8507C6.02358 56.7543 5.85059 56.7061 5.6497 56.7061Z" fill="#545454"/>
<path d="M3.15455 55.3708V59.0983H2.96482L0.537384 56.4335V59.0983H0.0351562V55.3708H0.224887L2.65232 58.0691V55.3708H3.15455Z" fill="#545454"/>
<path fill-rule="evenodd" clip-rule="evenodd" d="M57.5667 19.0593C57.3468 18.7566 57.361 18.3418 57.6056 18.0587L60.0927 15.1801C60.4719 14.7412 61.1793 14.8482 61.4116 15.3797L63.9966 21.2926L67.9372 19.1315C68.2875 18.9394 68.7155 19.1929 68.7155 19.5924V21.5276C68.7155 21.6631 68.6632 21.7933 68.5695 21.8911L65.6095 24.9821L67.2272 28.6823L77.2374 50.589C77.3169 50.763 77.1897 50.961 76.9984 50.961H71.742C71.4149 50.961 71.1219 50.7591 71.0053 50.4535L68.9454 45.0517L66.4431 50.5016C66.3145 50.7816 66.0347 50.961 65.7266 50.961H60.5168C60.3064 50.961 60.1769 50.7288 60.2904 50.5517C61.2922 48.9883 64.7998 43.2665 65.3452 38.9846C66.2867 31.5924 59.2971 21.4406 57.5667 19.0593Z" fill="black"/>
<path fill-rule="evenodd" clip-rule="evenodd" d="M42.2706 9.62996C42.7961 9.62996 43.3145 9.65755 43.824 9.71122C46.7827 4.07812 53.1528 0.181152 60.534 0.181152C67.9152 0.181152 74.2854 4.07812 77.244 9.71122C77.7536 9.65755 78.272 9.62996 78.7975 9.62996C85.0171 9.62996 90.234 13.4949 91.646 18.7023C91.7015 18.7013 91.7571 18.7008 91.8129 18.7008C96.3345 18.7008 99.9999 22.0005 99.9999 26.0709C99.9999 30.0781 96.4474 33.3383 92.0228 33.4386V33.4409H87.4107H78.7975L72.1129 33.4409C72.1129 33.4409 71.5635 32.2901 71.0859 31.4794C70.6083 30.6687 69.6668 29.2891 69.6668 29.2891L78.7975 29.2891L91.8593 29.2891L91.9068 29.2881C93.8365 29.2443 95.3879 27.8201 95.3879 26.0709C95.3879 24.2935 93.7873 22.8526 91.8129 22.8526C91.7879 22.8526 91.763 22.8528 91.7381 22.8533L88.0422 22.9197L87.1655 19.6869C86.2458 16.2952 82.842 13.7818 78.7975 13.7818C78.4515 13.7818 78.112 13.7999 77.78 13.8349L74.8189 14.1468C73.534 8.22535 67.7382 3.75661 60.7826 3.75661C52.884 3.75661 46.4808 9.51945 46.4808 16.6283C46.4808 16.664 46.481 16.6997 46.4813 16.7353C46.481 16.7657 46.4809 16.7961 46.4809 16.8264C46.4809 17.6768 46.588 18.5135 46.795 19.3241C48.1703 25.1323 53.8986 29.4903 60.7598 29.4999C61.0056 29.8776 61.5113 30.6864 61.7425 31.2877C62.0542 32.0983 62.2166 33.4409 62.2166 33.4409L45.833 33.4409H42.2706H41.2209V33.404C34.4075 32.9224 29.0453 27.7926 29.0453 21.5354C29.0453 14.9602 34.9664 9.62996 42.2706 9.62996ZM42.2706 13.7818C42.3468 13.7818 42.4228 13.7826 42.4984 13.7844C42.2961 14.7707 42.1903 15.7874 42.1903 16.8264C42.1903 22.0233 44.8359 26.4353 48.9808 29.2891L42.2706 29.2891H41.9244L41.582 29.2649C37.1493 28.9516 33.6573 25.6086 33.6573 21.5354C33.6573 17.2532 37.5136 13.7818 42.2706 13.7818Z" fill="#045CE2"/>
</svg>
