<svg width="20" height="20" viewBox="0 0 20 20" fill="none" xmlns="http://www.w3.org/2000/svg">
<g clip-path="url(#clip0_570_456)">
<path d="M7.3125 8.8125C8.21875 8.8125 9.125 9.09375 9.90625 9.59375C10.2188 9.8125 10.6563 9.71875 10.875 9.40625C11.0938 9.09375 11 8.65625 10.6875 8.4375C10.2188 8.125 9.75 7.90625 9.25 7.75C10.3438 7.09375 11.0625 5.90625 11.0625 4.5625C11.0625 2.5 9.375 0.84375 7.34375 0.84375C5.3125 0.84375 3.5625 2.46875 3.5625 4.5C3.5625 5.84375 4.28125 7.03125 5.375 7.6875C4.28125 8.0625 3.3125 8.75 2.5 9.6875C1.28125 11.125 0.59375 13.1562 0.53125 15.3437C0.53125 15.625 0.6875 15.875 0.90625 16C1.65625 16.375 4.375 17.625 7.28125 17.625C7.59375 17.625 7.9375 17.625 8.25 17.5938C8.625 17.5625 8.9375 17.2188 8.90625 16.8438C8.875 16.4688 8.53125 16.1562 8.15625 16.1875C7.875 16.2188 7.5625 16.2188 7.28125 16.2188C5.0625 16.2188 2.9375 15.4062 1.9375 14.9375C2.0625 13.25 2.625 11.7188 3.53125 10.625C4.5625 9.4375 5.875 8.8125 7.3125 8.8125ZM7.3125 2.1875C8.59375 2.1875 9.625 3.21875 9.625 4.5C9.625 5.78125 8.59375 6.8125 7.3125 6.8125C6.03125 6.8125 5 5.78125 5 4.5C5 3.21875 6.03125 2.1875 7.3125 2.1875Z" fill="#045CE2"/>
<path d="M15.5938 11.4688C14.9375 10.8125 14.0312 10.5 13.0938 10.5625C11.375 10.6875 10 12.125 10 13.875C10 14.9375 10.4375 15.9063 11.2188 16.5313V17.7188C11.2188 18.5625 11.9063 19.2188 12.7188 19.2188H13.8437C14.6875 19.2188 15.3437 18.5313 15.3437 17.7188V16.5313C16.125 15.9063 16.5937 14.9375 16.5937 13.9063C16.5937 12.9688 16.25 12.125 15.5938 11.4688ZM13.1562 11.9688C13.1875 11.9688 13.2188 11.9688 13.25 11.9688C13.75 11.9688 14.2187 12.1563 14.5625 12.5C14.9375 12.875 15.1562 13.375 15.1562 13.9063C15.1562 14.5625 14.8437 15.1563 14.3125 15.5H12.1563C11.625 15.125 11.3125 14.5313 11.3437 13.875C11.4062 12.875 12.1875 12.0313 13.1562 11.9688ZM13.8437 17.8125H12.7188C12.6562 17.8125 12.625 17.7813 12.625 17.7188V16.9375H13.9375V17.7188C13.9375 17.75 13.9062 17.8125 13.8437 17.8125Z" fill="#045CE2"/>
<path d="M13.2812 10.125C13.6563 10.125 14 9.8125 14 9.40625V8.8125C14 8.4375 13.6875 8.09375 13.2812 8.09375C12.875 8.09375 12.5625 8.40625 12.5625 8.8125V9.40625C12.5625 9.8125 12.9062 10.125 13.2812 10.125Z" fill="#045CE2"/>
<path d="M17.9688 11.1563C18.25 10.875 18.25 10.4375 17.9688 10.1562C17.6875 9.875 17.25 9.875 16.9688 10.1562L16.4375 10.6562C16.1562 10.9375 16.1562 11.375 16.4375 11.6562C16.5625 11.7812 16.75 11.875 16.9375 11.875C17.125 11.875 17.2813 11.8125 17.4375 11.6875L17.9688 11.1563Z" fill="#045CE2"/>
<path d="M18.75 13.9688H18.1562C17.7812 13.9688 17.4375 14.2812 17.4375 14.6875C17.4375 15.0938 17.75 15.4062 18.1562 15.4062H18.75C19.125 15.4062 19.4688 15.0938 19.4688 14.6875C19.4688 14.2812 19.125 13.9688 18.75 13.9688Z" fill="#045CE2"/>
</g>
<defs>
<clipPath id="clip0_570_456">
<rect width="20" height="20" fill="white"/>
</clipPath>
</defs>
</svg>
